<svg preserveAspectRatio="none" width="100%" height="100%" overflow="visible" style="display: block;" viewBox="0 0 198.444 35.0449" fill="none" xmlns="http://www.w3.org/2000/svg">
<g id="Group 627238">
<path id="Vector 60" d="M0.72213 29.2515C0.762457 29.7541 0.98785 30.752 1.93586 32.1012C2.97351 33.5781 4.27142 33.9661 5.64305 34.2323C7.79253 34.6494 9.08866 33.5916 11.2962 31.7438C12.8891 30.4106 15.2901 28.0983 16.8845 26.7231C19.0731 24.8352 20.9809 24.0784 23.4146 23.3284C24.6981 22.9329 26.1649 22.8138 27.7989 22.7145C31.2065 22.5076 33.3484 22.6625 34.0123 22.7879C34.7903 22.9347 35.707 23.3748 36.5537 23.8066C36.8912 23.9787 37.0237 24.0885 36.7132 24.1518C36.4027 24.2152 35.6406 24.2373 33.4438 24.2374C31.247 24.2374 27.6386 24.2146 25.5132 24.267C22.1098 24.3509 20.1622 25.7547 18.4387 27.0176C17.8032 27.4833 17.9835 29.1398 18.1084 30.2959C18.2554 31.658 19.1609 32.2384 19.8172 32.8346C20.4781 33.4352 21.9743 33.6626 25.7919 33.8034C26.9583 33.8464 27.6289 33.6374 28.4198 33.3572C29.5645 32.9517 31.2402 31.8688 33.1915 30.5176C36.155 28.4654 36.9733 26.9511 37.2487 26.2946C37.3789 25.984 37.1862 25.6326 37.1057 25.4815C36.8237 24.9523 38.7382 28.7082 40.6518 31.1054C41.3768 32.0135 42.9228 32.502 44.1465 32.7326C46.6249 33.1998 47.7337 32.5997 49.5374 31.9163C51.0293 31.351 53.6165 30.1519 55.668 29.1246C57.7196 28.0972 59.1378 27.2293 60.555 26.1862C61.9722 25.143 63.3453 23.951 64.3708 22.878C66.1624 21.0031 67.0906 19.1274 68.0607 16.6174C68.7055 14.9491 69.3474 12.3672 69.7958 10.3564C70.9733 5.07563 70.4908 3.44367 70.1013 2.44681C69.7062 1.43546 68.5282 0.984713 67.4489 0.781594C66.487 0.60059 65.6979 0.854127 65.0414 1.26208C63.7289 2.07768 62.1397 3.72771 60.484 5.75924C58.7806 7.84919 57.9303 10.0218 57.363 11.7029C57.079 12.5446 56.9405 13.4066 56.8406 15.0375C56.5949 19.0476 56.7518 21.8449 56.9919 22.7387C57.6807 25.3029 58.8924 26.5876 60.5402 28.2057C62.0183 29.6571 63.0233 29.6266 66.8021 30.0983C69.6254 30.4507 71.0833 29.7442 73.3991 28.2524C75.122 27.1425 75.62 25.8908 76.082 24.7588C76.7611 23.0945 76.1247 20.7449 75.8456 19.7736C75.4381 18.3549 74.5468 17.6471 74.2308 17.3754C74.8004 17.3259 76.1641 17.0864 78.1366 16.6151C79.1918 16.369 80.3569 16.1089 81.6701 15.6591" stroke="var(--stroke-0, #636363)" stroke-width="1.44419" stroke-linecap="round"/>
<path id="Vector 61" d="M73.7057 27.5108C74.0455 27.6625 76.8188 27.9094 78.7931 27.6106C82.5251 27.0459 86.5721 20.6199 89.4363 19.4356C91.3982 18.6244 95.8683 18.7657 98.3945 18.6736C103.728 18.4792 87.9354 18.2635 87.3039 18.4284C84.3098 19.2103 86.0069 26.686 86.4965 27.1999C88.7402 29.5549 95.4301 28.4118 98.0792 27.9171C100.871 27.3957 102.373 24.2786 103.099 22.6746C103.487 21.8164 103.064 20.9434 102.657 20.4835C102.213 19.982 100.846 19.8919 99.3612 19.9769C98.8076 20.0086 98.708 20.3694 98.7102 20.6672C98.7198 21.9471 100.302 23.3898 102.248 25.1204C103.998 26.6755 109.897 26.572 113.711 25.868C118.364 25.009 119.264 22.123 119.726 21.704C120.849 20.684 120.297 24.6176 120.886 25.6112C121.517 26.6751 125.864 26.6781 128.448 26.3451C129.942 26.1525 130.425 23.7313 130.876 22.586C131.406 21.2403 133.461 25.5108 135.077 26.5721C137.062 27.8762 142.332 27.7731 145.79 27.1295C147.644 26.7846 149.312 23.5882 152.378 17.1307C153.187 14.9534 153.886 12.4512 154.267 10.9868C154.647 9.52253 154.689 9.17198 154.851 8.21393" stroke="var(--stroke-0, #636363)" stroke-width="1.44419" stroke-linecap="round"/>
<path id="Vector 62" d="M146.789 8.21415C146.816 8.21415 146.843 8.21415 151.011 8.21415C155.18 8.21415 163.489 8.21415 172.108 8.18291" stroke="var(--stroke-0, #636363)" stroke-width="1.44419" stroke-linecap="round"/>
<path id="Vector 63" d="M151.845 19.0355C151.951 19.4179 154.525 22.7358 158.081 25.8319C158.851 26.502 160.295 26.9242 164.667 27.5772C167.919 28.0628 173.361 28.0588 176.785 28.0584C180.208 28.058 181.472 27.856 183.677 27.2482C188.99 25.6328 193.732 23.8285 196.176 22.5825C197.081 22.1027 197.305 21.9324 197.722 21.2699" stroke="var(--stroke-0, #636363)" stroke-width="1.44419" stroke-linecap="round"/>
</g>
</svg>
