<svg preserveAspectRatio="none" width="100%" height="100%" overflow="visible" style="display: block;" viewBox="0 0 420.965 41.8803" fill="none" xmlns="http://www.w3.org/2000/svg">
<g id="Group 627230">
<path id="Vector 52" d="M14.3137 31.7919C14.3137 31.7764 14.1351 31.5821 13.5647 31.1974C10.779 29.3188 6.26351 30.7649 5.16932 31.4489C3.68347 32.3778 2.28799 35.64 1.62963 37.4057C1.27916 38.3457 1.72727 39.2493 2.09112 39.6779C2.43539 40.0835 2.91498 40.2377 3.44342 40.3289C4.19375 40.4585 4.86487 40.3607 6.38402 39.8522C10.1413 38.5944 13.3942 37.0579 14.8904 36.2648C16.7371 35.2859 18.2216 34.2182 21.4255 31.6548C23.6028 29.9128 26.662 26.9884 28.6763 25.0549C32.7133 21.1798 33.3068 20.3128 34.0103 19.5044C34.1833 19.3056 34.3086 19.1207 34.2851 19.1266C33.465 19.3304 33.1991 20.6952 31.428 25.0078C31.0332 25.9692 30.8809 26.2759 30.9265 26.3912C30.972 26.5066 31.2182 26.4206 34.7241 24.3301C38.23 22.2396 44.9883 18.1471 48.4114 16.1593C51.8346 14.1715 51.7179 14.4124 50.3086 15.9778C48.8993 17.5431 46.201 20.4258 44.3571 22.5812C41.465 25.9621 40.4423 27.8794 39.9544 28.9344C39.296 30.3581 39.0955 31.6705 39.2436 32.2901C39.3077 32.5582 39.7784 32.5249 40.0867 32.5146C40.6383 32.4962 42.7875 31.4746 46.9684 29.0192C52.1624 25.9689 54.6831 23.2408 54.7278 23.1803C55.625 21.9662 51.5163 27.6186 50.7016 29.6838C49.9408 31.6125 56.1485 29.5546 59.663 27.5579C62.3185 26.0492 66.4453 23.0355 68.8932 21.3945C71.3411 19.7535 71.9085 19.4488 74.2278 18.7456C76.5471 18.0423 80.6011 16.9497 83.2281 16.312C85.855 15.6742 86.9321 15.5244 85.4428 16.1283C83.9535 16.7321 79.865 18.0941 76.8111 19.3256C73.7572 20.5572 71.8617 21.6169 70.259 22.6821C65.3494 25.9449 64.344 28.0023 63.8937 29.1898C63.7909 29.461 63.8232 29.739 63.9501 29.9068C64.2255 30.271 68.1233 30.1483 74.1847 29.8824C76.7488 29.7699 78.2481 29.3008 80.5906 28.4158C82.933 27.5309 86.0666 26.1413 88.3208 25.2858C90.575 24.4302 91.8547 24.1506 94.2888 23.765C100.261 22.8188 104.175 22.3279 104.38 22.2267C104.425 22.2042 104.007 22.2061 100.834 23.1164C97.6619 24.0266 91.6604 25.8364 88.2393 26.9307C84.8183 28.0249 84.1596 28.3488 83.9294 28.6124C83.6287 28.957 85.8188 30.1 88.9517 31.498C91.4866 32.6291 94.1999 32.6531 96.6393 32.6172C98.4037 32.5912 100.32 31.5101 102.521 30.0415C105.587 27.9961 106.135 26.4045 106.57 25.3038C107.048 24.0946 109.634 27.1729 112.128 27.9298C113.901 28.2562 115.896 28.4556 117.487 28.3877C118.109 28.291 118.358 28.0678 118.77 27.3264" stroke="var(--stroke-0, #7A7A75)" stroke-width="3" stroke-linecap="round"/>
<path id="Vector 53" d="M109.175 26.705C109.19 26.705 111.635 26.705 115.741 26.6038C120.074 26.497 122.256 25.1052 123.846 24.3707C126.978 22.9235 128.351 20.4522 128.984 19.2838C129.121 19.0304 129.088 18.7316 129.02 18.5018C128.89 18.0593 128.406 17.7978 127.937 17.5961C126.874 17.1395 125.414 17.6106 124.107 18.379C120.864 20.2853 119.713 22.46 119.063 23.8376C118.333 25.3851 118.538 28.1692 118.653 29.7217C118.695 30.293 118.972 30.3892 119.244 30.4783C119.833 30.6716 122.144 30.7504 125.324 30.7927C126.949 30.8143 128.248 30.4461 130.317 29.7002C131.523 29.2652 132.989 28.5592 135.858 26.7919C138.726 25.0246 142.939 22.1775 146.661 19.2601C150.383 16.3428 153.486 13.4415 155.599 11.2928C158.873 7.96262 160.102 5.9843 160.738 4.82132C161.512 3.40761 161.825 2.27988 161.74 1.84002C161.652 1.37879 160.834 1.48512 160.155 1.59365C159.051 1.77022 157.94 2.49141 156.537 3.66265C154.183 5.6276 152.204 8.19962 150.546 10.8013C148.435 14.1139 147.357 17.2728 146.724 19.1999C145.514 22.8811 146.198 25.8583 146.694 26.5862C147.3 27.4756 149.478 27.0711 153.635 26.4262C156.581 25.9692 161.096 24.5517 164.154 23.8279C167.211 23.1042 168.642 22.9389 170.82 22.7901C172.998 22.6413 175.88 22.5139 176.571 22.4563C177.465 22.3817 173.49 22.5289 171.62 22.9855C165.546 24.4686 164.562 25.3541 164.298 25.7128C163.95 26.1846 164.287 26.8309 164.575 27.206C165.312 28.1636 167.667 28.4437 173.165 28.5166C176.269 28.5577 177.567 26.7725 179.117 25.0343C179.524 24.578 179.729 24.1609 179.993 23.931C180.257 23.701 180.541 23.6439 182.396 23.8341C184.251 24.0242 187.667 24.4635 190.644 24.6883C198.825 24.8123 199.782 24.3865 200.722 23.7586C201.239 23.364 201.836 22.8153 202.451 22.25" stroke="var(--stroke-0, #7A7A75)" stroke-width="3" stroke-linecap="round"/>
<path id="Vector 54" d="M250.229 17.7898C247.193 17.7504 240.423 17.9666 236.964 20.0968C235.478 21.0115 234.792 21.9066 234.455 22.5124C234.289 22.8123 234.272 23.1658 234.246 23.5211C234.22 23.8765 234.22 24.2406 234.955 24.4449C239.265 25.643 241.722 23.8615 244.529 22.2265C245.506 21.6573 247.085 20.0053 250.223 16.3727C254.733 11.1504 257.772 5.90453 258.158 5.85327C259.905 5.62127 255.79 12.731 254.639 16.0941C253.024 20.8103 252.729 22.9607 252.926 24.0356C253.004 24.4646 253.563 24.4717 253.991 24.4556C255.622 24.3942 256.948 23.3804 258.472 22.4574C260.555 21.1966 261.852 19.09 262.87 17.2258C263.295 16.4484 262.314 19.8594 262.44 21.5498C262.629 24.0788 268.466 22.265 272.593 20.6305C275.952 19.1838 281.877 16.484 286.002 14.8091C290.128 13.1341 292.274 12.5658 295.185 11.5757" stroke="var(--stroke-0, #7A7A75)" stroke-width="3" stroke-linecap="round"/>
<path id="Vector 55" d="M275.702 13.1829C276.99 13.8761 279.949 15.6593 283.691 17.01C284.857 17.2865 286.284 17.625 288.105 18.1755C288.839 18.4166 289.187 18.5801 289.926 18.7926" stroke="var(--stroke-0, #7A7A75)" stroke-width="3" stroke-linecap="round"/>
<path id="Vector 56" d="M319.71 15.1588C315.755 15.1588 306.858 15.443 305.253 16.3341C304.23 16.9017 303.747 17.8888 303.707 18.6448C303.592 20.7734 308.029 21.1266 312.947 21.305C316.187 21.4225 318.61 19.0977 319.219 18.3298C319.462 18.0235 319.17 17.6544 318.82 17.4625C318.04 17.0352 316.903 17.1429 316.237 17.2133C313.877 17.463 324.609 16.9777 330.593 14.3958C334.949 12.5163 337.744 10.4988 339.24 10.1412C340.952 9.732 342.356 10.1094 343.117 10.5806C345.375 11.9781 346.455 15.2816 346.865 15.7545C348.198 17.2918 350.893 12.7438 352.478 12.1782C354.771 11.36 357.915 13.3843 364.604 15.8889C368.964 17.5212 375.527 19.1929 381.501 20.2847C387.475 21.3765 392.724 21.6602 395.883 21.7834C399.95 21.9421 402.036 21.6276 405.885 20.5997C412.82 18.2662 417.64 16.4973 418.469 15.9663C418.835 15.6673 419.09 15.3083 419.465 14.3172" stroke="var(--stroke-0, #7A7A75)" stroke-width="3" stroke-linecap="round"/>
<path id="Vector 57" d="M289.698 19.2253C289.698 19.2518 292.41 19.2788 296.683 19.2809C298.245 19.2698 298.574 19.2338 298.935 19.1667C299.295 19.0996 299.675 19.0025 300.402 18.8091" stroke="var(--stroke-0, #7A7A75)" stroke-width="3" stroke-linecap="round"/>
<path id="Vector 58" d="M61.7171 15.1209H61.6681" stroke="var(--stroke-0, #7A7A75)" stroke-width="3" stroke-linecap="round"/>
<path id="Vector 59" d="M264.812 9.71459H264.793" stroke="var(--stroke-0, #7A7A75)" stroke-width="3" stroke-linecap="round"/>
</g>
</svg>
